<?xml version="1.0" encoding="utf-8"?>
<!-- Generator: Adobe Illustrator 22.1.0, SVG Export Plug-In . SVG Version: 6.00 Build 0)  -->
<svg version="1.1" id="Layer_1" xmlns="http://www.w3.org/2000/svg" xmlns:xlink="http://www.w3.org/1999/xlink" x="0px" y="0px"
	 viewBox="0 0 105 23" style="enable-background:new 0 0 105 23;" xml:space="preserve">
<style type="text/css">
	.st0{fill:none;}
	.st1{fill:#EA9612;}
	.st2{fill:#FFFFFF;}
</style>
<g>
	<rect x="19.8" y="3" class="st0" width="105" height="22.2"/>
	<path class="st1" d="M32.7,6.7l-1.8,1.6c-1,0.9-1.7,1.5-2.1,2l2.5,6.8h-3.9l-1.4-4.4l-1.8,1.6L23.7,17H20l2.3-14H26l-1.3,7.7
		l0.7-0.7c0.2-0.2,0.4-0.4,0.6-0.6l3-2.8H32.7z"/>
	<path class="st2" d="M45.1,6.3l-3.6,0.9c-0.1-0.4-0.4-0.7-0.8-1s-0.9-0.4-1.4-0.4c-0.9,0-1.4,0.3-1.4,0.9c0,0.2,0.1,0.4,0.2,0.5
		s0.5,0.3,1.1,0.5l2.2,0.8c0.6,0.2,1.1,0.5,1.6,0.9s0.9,0.8,1.1,1.3s0.3,1,0.3,1.5c0,1.4-0.6,2.6-1.7,3.5c-1.1,0.9-2.6,1.4-4.4,1.4
		c-1.6,0-3-0.3-4.1-1c-1.2-0.6-2-1.6-2.5-2.9l4-0.8c0.3,1,1.2,1.5,2.6,1.5c0.6,0,1-0.1,1.2-0.3c0.3-0.2,0.4-0.4,0.4-0.7
		c0-0.2,0-0.3-0.1-0.5c-0.1-0.1-0.2-0.2-0.3-0.3C39.5,12.2,39,12,38,11.6c-1.3-0.5-2.2-0.8-2.7-1.1c-0.5-0.3-0.9-0.7-1.3-1.2
		c-0.3-0.5-0.5-1.2-0.5-1.9c0-1.3,0.5-2.4,1.4-3.2s2.4-1.3,4.3-1.3c1.5,0,2.7,0.3,3.8,0.9S44.8,5.2,45.1,6.3z"/>
	<path class="st2" d="M46.9,6.6h3.7l-0.3,1.7c0.5-0.8,0.9-1.3,1.4-1.6c0.5-0.2,1-0.4,1.5-0.4c1.1,0,1.9,0.4,2.6,1.2
		c0.7,0.8,1,1.9,1,3.2c0,1.6-0.4,3.1-1.3,4.5c-0.9,1.3-2.1,2-3.6,2c-1.2,0-2-0.5-2.6-1.5l-0.7,4.5h-3.9L46.9,6.6z M50.2,10.4
		c-0.3,1.6-0.4,2.7-0.4,3.1c0,0.4,0.1,0.7,0.3,0.9c0.2,0.2,0.5,0.3,0.8,0.3c0.4,0,0.7-0.2,1-0.5c0.2-0.3,0.4-0.9,0.6-1.8
		c0.2-0.9,0.3-1.5,0.3-1.9c0-1-0.4-1.5-1.1-1.5C50.9,9,50.5,9.4,50.2,10.4z"/>
	<path class="st2" d="M62.9,17.3c-1.4,0-2.7-0.4-3.6-1.3c-1-0.9-1.5-2-1.5-3.5c0-1.8,0.6-3.3,1.7-4.4c1.1-1.1,2.6-1.7,4.3-1.7
		c1.6,0,2.8,0.4,3.8,1.3c0.9,0.9,1.4,2,1.4,3.3c0,2-0.6,3.5-1.8,4.6C66,16.8,64.6,17.3,62.9,17.3z M63.1,14.8c0.7,0,1.2-0.5,1.5-1.6
		c0.3-1.1,0.4-2,0.4-2.7c0-1.1-0.4-1.6-1.2-1.6c-0.7,0-1.2,0.5-1.5,1.6c-0.3,1.1-0.4,2-0.4,2.7C61.9,14.3,62.3,14.8,63.1,14.8z"/>
	<path class="st2" d="M71.5,6.6h3.5l-0.4,2.5c0.7-1.9,1.8-2.8,3.3-2.8c0.1,0,0.3,0,0.5,0.1l-0.5,3.7c-0.4,0-0.6,0-0.7,0
		c-0.9,0-1.5,0.2-1.9,0.6c-0.4,0.4-0.7,1.1-0.9,2.1L73.7,17h-3.9L71.5,6.6z"/>
	<path class="st2" d="M86.1,6.6l-0.5,2.6h-1.9L83.1,13c-0.1,0.4-0.1,0.6-0.1,0.7c0,0.5,0.3,0.8,1,0.8c0.3,0,0.6,0,1-0.1L84.5,17
		c-0.7,0.2-1.4,0.2-2.1,0.2c-0.8,0-1.5-0.1-1.9-0.3c-0.4-0.2-0.7-0.5-1-0.9c-0.3-0.4-0.4-0.9-0.4-1.5c0-0.3,0.1-0.8,0.2-1.5l0.6-3.7
		h-1.4L79,6.6h1.4L81,3.6l3.8-0.1l-0.5,3.1H86.1z"/>
</g>
</svg>
